<?xml version="1.0" encoding="utf-8"?>
<!-- Generator: Adobe Illustrator 22.0.1, SVG Export Plug-In . SVG Version: 6.00 Build 0)  -->
<svg version="1.1" id="Layer_1" xmlns="http://www.w3.org/2000/svg" xmlns:xlink="http://www.w3.org/1999/xlink" x="0px" y="0px"
	 viewBox="0 0 150 100" style="enable-background:new 0 0 150 100;" xml:space="preserve">
<style type="text/css">
	.st0{fill:#FFFFFF;}
</style>
<g>
	<path class="st0" d="M139.2,75.5l-0.4-0.1c-5.2-1.4-6.9-2.7-9.2-3.6c-1.8-0.7-3.3-1.3-4.5-1.9c3.2-0.5,6.2-1.2,8.8-2.1
		c5.9-1.9,8.1-3.8,8.3-4l1.7-1.6l-1.8-1.5c-4.4-3.7-5.3-12.4-6.2-21.5c-0.9-9.1-1.8-18.4-6.1-25.9C124.8,4.4,116.2,0,103.5,0
		C90.7,0,82.1,4.4,77.1,13.2c-4.3,7.5-5.2,16.9-6.1,25.9c-0.9,9.2-1.8,17.8-6.2,21.5L63,62.2l1.7,1.6c0.2,0.2,2.4,2.1,8.3,4
		c2.6,0.8,5.6,1.5,8.8,2.1c-1.2,0.6-2.7,1.2-4.5,1.9c-2.3,0.9-4,2.2-9.2,3.6l-0.4,0.1c-4.7,1.6-7.9,5.9-7.9,10.8V100h43.6H147V86.3
		C147,81.4,143.9,77,139.2,75.5z M89.3,57.9c-5.4-6.2-8.5-13.6-8.6-20.5c3.6-0.8,7.3-2.1,11-4c5-2.5,10-6,14.8-10.4
		c0.5-0.5,1-1,1.6-1.4c3.2,2.4,9.6,6.6,17.2,8.6c0.5,2.3,0.8,4.7,0.8,7.2c0,6.9-3.1,14.4-8.6,20.6c-2.4,2.7-5.1,5-7.8,6.6
		c-2.4,1.4-4.7,2.2-6.4,2.2c-1.7,0-4-0.8-6.4-2.2C94.4,62.9,91.7,60.6,89.3,57.9z M137.5,61.9c-1.2,0.6-2.9,1.4-5.4,2.1
		c-3.9,1.2-8.2,1.9-12.5,2.4c-0.4-0.4-0.7-0.8-0.8-1.1c0,0,0-0.1-0.1-0.1l0-2.5c6.4-6.3,11.6-15.7,11.6-25.5c0-2.2-0.2-4.3-0.6-6.3
		c0.4,0,0.7,0.1,1.1,0.1c0.4,2.8,0.7,5.6,0.9,8.4C132.7,48.3,133.5,56.7,137.5,61.9z M126.2,15.3c1.9,3.4,3.1,7.4,3.9,11.6
		c-8.2-1.1-15.4-5.6-19.1-8.3c4.8-5,7.9-9.3,8.6-10.4C122.4,9.9,124.5,12.3,126.2,15.3z M80.7,15.3c2-3.5,4.6-6.1,8-7.9
		c3.9-2.1,8.8-3.1,14.8-3.2c4.8,0,9,0.7,12.5,2.1c-1.4,1.9-5.8,7.9-12.3,13.7c-4.6,4.1-9.2,7.4-13.9,9.7c-4.7,2.4-9.5,3.8-14.1,4.2
		C76.5,27.2,77.7,20.6,80.7,15.3z M74.8,64c-2.5-0.8-4.3-1.5-5.4-2.1c4.1-5.2,4.9-13.5,5.8-22.3c0-0.5,0.1-0.9,0.1-1.4
		c0.4,0,0.9-0.1,1.3-0.1c0.2,9.5,5.4,18.6,11.6,24.7l0,2.5c0,0,0,0.1-0.1,0.1c-0.1,0.3-0.4,0.6-0.8,1.1C83,65.9,78.7,65.2,74.8,64z
		 M142.9,95.8h-39.4H64v-9.5c0-3.1,2-5.9,4.9-6.9l0.2-0.1c3.9-1,6-2.1,7.8-2.9c0.7-0.3,1.2-0.6,1.8-0.8c4.7-1.8,11.1-4.6,13-8.4
		c0.1-0.1,0.1-0.3,0.2-0.3l0.3-0.6c3.9,2.9,7.9,4.6,11.2,4.6c3.3,0,7.3-1.7,11.2-4.6l0.3,0.6c0,0.1,0.1,0.2,0.2,0.3
		c2,3.8,8.4,6.6,13.1,8.4c0.6,0.2,1.1,0.5,1.8,0.8c1.7,0.8,3.9,1.9,7.8,2.9l0.2,0.1c3,1,4.9,3.8,4.9,6.9V95.8z"/>
	<path class="st0" d="M62.6,95.8H7.1v-9.5c0-3.1,2-5.9,4.9-6.9l0.2-0.1c3.9-1,6-2.1,7.8-2.9c0.7-0.3,1.2-0.6,1.8-0.8
		c4.7-1.8,11.1-4.6,13.1-8.4c0.1-0.1,0.1-0.3,0.2-0.3l0.3-0.8l0-0.9l0-2.4c5,5,10.7,8.1,15.2,8.1c4.5,0,10.2-3.1,15.2-8.1l0,2.4
		l0,0.9l0.3,0.8c0,0.1,0.1,0.2,0.2,0.3c1.6,3.1,6,5.5,10.2,7.2c1.7-0.7,3.5-1.5,5.2-2.4c-0.3-0.1-0.6-0.2-0.9-0.4
		c-8.2-3.1-10.3-5.4-10.8-6.4c0,0,0-0.1-0.1-0.1l0-0.6c-4.2-1.9-4.6-3.4-4.6-3.4s3-1.8,7.3-12.5c4.2-10.7,3.2-18,3.5-27.8
		c0-1.3,0.3-2.6,0.7-3.7c-3.4-7.1-11.6-7.2-12.3-7.2c0,0-0.1,0-0.1,0s-0.5-4.6,5-8C70.5,1.4,65.2,0,57.8,0c-11.3,0-27.3,3.2-33,17.6
		c-3.6,8.9-0.9,22.1-0.9,22.1l0,0c0.6,6.7,3.5,13.1,7.4,18.4l-0.1,7.1c0,0,0,0.1-0.1,0.1c-0.5,1.1-2.7,3.3-10.8,6.4
		c-2.3,0.9-4.1,2.2-9.2,3.6l-0.4,0.1C6.1,77,3,81.4,3,86.3V100h59.8C62.7,98.9,62.6,97.4,62.6,95.8z M28.7,19.2
		c1.1-2.8,2.8-5.3,5-7.3c2-1.8,4.4-3.4,7.2-4.6c6-2.5,12.5-3.1,16.9-3.1c1.4,0,2.7,0.1,3.9,0.1c-0.3,0.5-0.5,1-0.6,1.5
		c-0.8,2.3-0.7,4.1-0.7,4.6l0.4,3.8l3.8-0.1c0.2,0,1.9,0,3.9,0.8c2.4,0.9,4,2.3,4.9,4.4c0.7,1.5,1.1,3.5,1.2,5.8l-1.5-2.3l-1.6-2.5
		L68.7,21c-0.1,0-8.9,2-18,2c-9,0-17.6-2-17.6-2L30,20.3L28.5,23L27.4,25C27.6,22.7,28.1,20.8,28.7,19.2z M28,37.4
		c0-2.1,0.2-4.1,0.6-6l3.5-6.3c0,0,8.9,2.1,18.6,2.1c9.7,0,18.9-2.1,18.9-2.1l2.7,4.2c0.7,2.5,1.1,5.3,1.1,8.2
		c0,6.9-3.1,14.4-8.6,20.6c-2.4,2.7-5.1,5-7.7,6.6c-2.4,1.4-4.7,2.2-6.4,2.2c-1.7,0-4-0.8-6.4-2.2C41.6,63,39,60.7,36.6,58
		C31.1,51.8,28,44.3,28,37.4z"/>
</g>
</svg>
