<?xml version="1.0" encoding="utf-8"?>
<!-- Generator: Adobe Illustrator 22.0.1, SVG Export Plug-In . SVG Version: 6.00 Build 0)  -->
<svg version="1.1" id="Layer_1" xmlns="http://www.w3.org/2000/svg" xmlns:xlink="http://www.w3.org/1999/xlink" x="0px" y="0px"
	 viewBox="0 0 100 100" style="enable-background:new 0 0 100 100;" xml:space="preserve">
<style type="text/css">
	.st0{fill:#FFFFFF;}
</style>
<g>
	<path class="st0" d="M50,2C23.5,2,2,23.5,2,50c0,26.5,21.5,48,48,48c26.5,0,48-21.5,48-48C98,23.5,76.5,2,50,2z M81.1,81.1
		c-4,4-8.8,7.2-14,9.4C61.7,92.9,55.9,94,50,94c-5.9,0-11.7-1.2-17.1-3.5c-5.2-2.2-10-5.4-14-9.4c-4-4-7.2-8.8-9.4-14
		C7.1,61.7,6,55.9,6,50c0-5.9,1.2-11.7,3.5-17.1c2.2-5.2,5.4-9.9,9.4-14c4-4,8.8-7.2,14-9.4C38.3,7.1,44.1,6,50,6
		c5.9,0,11.7,1.2,17.1,3.5c5.2,2.2,9.9,5.4,14,9.4c4,4,7.2,8.8,9.4,14C92.9,38.3,94,44.1,94,50c0,5.9-1.2,11.7-3.5,17.1
		C88.3,72.4,85.2,77.1,81.1,81.1z"/>
	<path class="st0" d="M60,86c-1.1,0-2,0.9-2,2s0.9,2,2,2c1.1,0,2-0.9,2-2S61.1,86,60,86z"/>
	<path class="st0" d="M30,64c0,1.1,0.9,2,2,2c1.1,0,2-0.9,2-2c0-1.1-0.9-2-2-2C30.9,62,30,62.9,30,64z"/>
	<path class="st0" d="M12,50c-1.1,0-2,0.9-2,2c0,1.1,0.9,2,2,2c1.1,0,2-0.9,2-2C14,50.9,13.1,50,12,50z"/>
	<path class="st0" d="M42,16c1.1,0,2-0.9,2-2s-0.9-2-2-2c-1.1,0-2,0.9-2,2S40.9,16,42,16z"/>
	<path class="st0" d="M70,32c-1.1,0-2,0.9-2,2c0,1.1,0.9,2,2,2c1.1,0,2-0.9,2-2C72,32.9,71.1,32,70,32z"/>
	<path class="st0" d="M34,22c0-3.3-2.7-6-6-6c-3.3,0-6,2.7-6,6s2.7,6,6,6C31.3,28,34,25.3,34,22z M28,24c-1.1,0-2-0.9-2-2s0.9-2,2-2
		c1.1,0,2,0.9,2,2S29.1,24,28,24z"/>
	<path class="st0" d="M22,44c-3.3,0-6,2.7-6,6c0,3.3,2.7,6,6,6c3.3,0,6-2.7,6-6C28,46.7,25.3,44,22,44z M22,52c-1.1,0-2-0.9-2-2
		c0-1.1,0.9-2,2-2c1.1,0,2,0.9,2,2C24,51.1,23.1,52,22,52z"/>
	<path class="st0" d="M60,76.8c0-3.3-2.7-6-6-6c-3.3,0-6,2.7-6,6c0,3.3,2.7,6,6,6C57.3,82.8,60,80.1,60,76.8z M54,78.8
		c-1.1,0-2-0.9-2-2s0.9-2,2-2c1.1,0,2,0.9,2,2S55.1,78.8,54,78.8z"/>
	<path class="st0" d="M84,48c-3.3,0-6,2.7-6,6s2.7,6,6,6c3.3,0,6-2.7,6-6S87.3,48,84,48z M84,56c-1.1,0-2-0.9-2-2s0.9-2,2-2
		c1.1,0,2,0.9,2,2S85.1,56,84,56z"/>
	<path class="st0" d="M80,62c-3.3,0-6,2.7-6,6c0,3.3,2.7,6,6,6c3.3,0,6-2.7,6-6C86,64.7,83.3,62,80,62z M80,70c-1.1,0-2-0.9-2-2
		c0-1.1,0.9-2,2-2c1.1,0,2,0.9,2,2C82,69.1,81.1,70,80,70z"/>
	<path class="st0" d="M38,70c-4.4,0-8,3.6-8,8s3.6,8,8,8c4.4,0,8-3.6,8-8S42.4,70,38,70z M38,82c-2.2,0-4-1.8-4-4c0-2.2,1.8-4,4-4
		c2.2,0,4,1.8,4,4C42,80.2,40.2,82,38,82z"/>
	<path class="st0" d="M44,34c4.4,0,8-3.6,8-8c0-4.4-3.6-8-8-8c-4.4,0-8,3.6-8,8C36,30.4,39.6,34,44,34z M44,22c2.2,0,4,1.8,4,4
		c0,2.2-1.8,4-4,4c-2.2,0-4-1.8-4-4C40,23.8,41.8,22,44,22z"/>
	<path class="st0" d="M78,22c0-4.4-3.6-8-8-8c-4.4,0-8,3.6-8,8c0,4.4,3.6,8,8,8C74.4,30,78,26.4,78,22z M66,22c0-2.2,1.8-4,4-4
		c2.2,0,4,1.8,4,4c0,2.2-1.8,4-4,4C67.8,26,66,24.2,66,22z"/>
</g>
</svg>
