<?xml version="1.0" encoding="utf-8"?>
<!-- Generator: Adobe Illustrator 22.0.1, SVG Export Plug-In . SVG Version: 6.00 Build 0)  -->
<svg version="1.1" id="Layer_1" xmlns="http://www.w3.org/2000/svg" xmlns:xlink="http://www.w3.org/1999/xlink" x="0px" y="0px"
	 viewBox="0 0 150 100" style="enable-background:new 0 0 150 100;" xml:space="preserve">
<style type="text/css">
	.st0{fill:#FFFFFF;}
</style>
<path class="st0" d="M79.4,80.1L79.4,80.1l-1.3,1.3V70.2c0-1.7-1.4-3.1-3.1-3.1c-1.7,0-3.1,1.4-3.1,3.1c0,0,0,0,0,0v11.1l-1.3-1.3
	c-1.2-1.2-3.2-1.2-4.4,0c-1.2,1.2-1.2,3.2,0,4.4c0,0,0,0,0,0l6.6,6.6c0.6,0.6,1.3,0.9,2.2,0.9c0.9,0,1.6-0.3,2.2-0.9l6.6-6.6
	c1.2-1.2,1.2-3.2,0-4.4C82.6,78.9,80.6,78.9,79.4,80.1z M55.1,21c-1.8,1.8-1.8,4.7,0,6.5c1.8,1.8,4.7,1.8,6.5,0
	c1.8-1.8,1.8-4.7,0-6.5C59.8,19.2,56.9,19.2,55.1,21z M59.4,25.4c-0.6,0.6-1.6,0.6-2.2,0c-0.6-0.6-0.6-1.6,0-2.2
	c0.6-0.6,1.6-0.6,2.2,0C60,23.8,60,24.8,59.4,25.4z M54,41.7c-0.6,0.6-0.6,1.6,0,2.2c0.6,0.6,1.6,0.6,2.2,0s0.6-1.6,0-2.2
	C55.6,41.1,54.6,41.1,54,41.7z M92.1,31.9c-2.4,2.4-2.4,6.3,0,8.7c2.4,2.4,6.3,2.4,8.7,0s2.4-6.3,0-8.7S94.5,29.5,92.1,31.9z
	 M98.6,38.4c-1.2,1.2-3.2,1.2-4.4,0c-1.2-1.2-1.2-3.2,0-4.4c1.2-1.2,3.2-1.2,4.4,0C99.8,35.3,99.8,37.2,98.6,38.4z M91,46
	c-0.6,0.6-0.6,1.6,0,2.2c0.6,0.6,1.6,0.6,2.2,0c0.6-0.6,0.6-1.6,0-2.2C92.6,45.4,91.6,45.4,91,46z M64.9,15.6
	c-1.8,1.8-1.8,4.7,0,6.5c1.8,1.8,4.7,1.8,6.5,0c1.8-1.8,1.8-4.7,0-6.5C69.6,13.8,66.7,13.8,64.9,15.6z M69.2,19.9
	c-0.6,0.6-1.6,0.6-2.2,0s-0.6-1.6,0-2.2c0.6-0.6,1.6-0.6,2.2,0S69.8,19.3,69.2,19.9z M91,19.9c0.6-0.6,0.6-1.6,0-2.2
	c-0.6-0.6-1.6-0.6-2.2,0c-0.6,0.6-0.6,1.6,0,2.2C89.4,20.5,90.4,20.5,91,19.9z M90.3,25c-1.8-1.8-4.7-1.8-6.5,0s-1.8,4.7,0,6.5
	c1.8,1.8,4.7,1.8,6.5,0C92.1,29.7,92.1,26.8,90.3,25z M88.1,29.3c-0.6,0.6-1.6,0.6-2.2,0c-0.6-0.6-0.6-1.6,0-2.2
	c0.6-0.6,1.6-0.6,2.2,0C88.7,27.7,88.7,28.7,88.1,29.3z M146.4,54.7h-35.3c0-0.1,0-0.1,0-0.2h-0.9c3.3-12.3,0.1-26-9.5-35.7
	C86.4,4.4,63,4.4,48.6,18.9c-9.7,9.7-12.8,23.4-9.5,35.7h-0.2c0,0.1,0,0.1,0,0.2H3.6c-1.7,0-3.1,1.4-3.1,3.1c0,1.7,1.4,3.1,3.1,3.1
	h142.8c1.7,0,3.1-1.4,3.1-3.1C149.5,56.1,148.1,54.7,146.4,54.7z M46.4,51.5c-1.2-1.2-1.2-3.2,0-4.4c1.2-1.2,3.2-1.2,4.4,0
	c1.2,1.2,1.2,3.2,0,4.4C49.5,52.7,47.6,52.7,46.4,51.5z M107.1,54.5h-2.4c0,0.1,0,0.1,0,0.2H51.5c0.5-0.3,1-0.6,1.4-1
	c2.4-2.4,2.4-6.3,0-8.7c-2.4-2.4-6.3-2.4-8.7,0c-2.4,2.4-2.4,6.3,0,8.7c0.4,0.4,0.9,0.8,1.4,1h-0.3c0-0.1,0-0.1,0-0.2h-3.1
	c-0.9-3.1-1.4-6.3-1.4-9.6c0-4.4,0.8-8.7,2.5-12.7c1.7-4.2,4.2-8,7.4-11.2c3.2-3.2,7-5.7,11.2-7.4c4.1-1.6,8.3-2.5,12.7-2.5
	c4.4,0,8.7,0.8,12.7,2.5c4.2,1.7,8,4.2,11.2,7.4c3.2,3.2,5.7,7,7.4,11.2c1.6,4.1,2.5,8.3,2.5,12.7C108.5,48.2,108.1,51.4,107.1,54.5
	z"/>
</svg>
