<?xml version="1.0" encoding="utf-8"?>
<!-- Generator: Adobe Illustrator 22.0.1, SVG Export Plug-In . SVG Version: 6.00 Build 0)  -->
<svg version="1.1" id="Layer_1" xmlns="http://www.w3.org/2000/svg" xmlns:xlink="http://www.w3.org/1999/xlink" x="0px" y="0px"
	 viewBox="0 0 150 100" style="enable-background:new 0 0 150 100;" xml:space="preserve">
<style type="text/css">
	.st0{fill:#FFFFFF;}
</style>
<path class="st0" d="M83.7,74.7l-6.5-6.5h0c-0.6-0.6-1.3-0.9-2.2-0.9c-0.8,0-1.6,0.3-2.2,0.9l-6.5,6.5c-1.2,1.2-1.2,3.1,0,4.3
	c1.2,1.2,3.1,1.2,4.3,0l0,0l1.3-1.3v11c0,1.7,1.4,3.1,3.1,3.1c1.7,0,3.1-1.4,3.1-3.1c0,0,0,0,0,0v-11l1.3,1.3c1.2,1.2,3.1,1.2,4.3,0
	C84.9,77.8,84.9,75.9,83.7,74.7C83.7,74.7,83.7,74.7,83.7,74.7z M70.1,20.3c-3.4,0-6.1,2.7-6.1,6.1c0,3.4,2.7,6.1,6.1,6.1
	s6.1-2.7,6.1-6.1C76.2,23.1,73.5,20.3,70.1,20.3z M70.1,29.4c-1.7,0-3-1.4-3-3c0-1.7,1.4-3,3-3c1.7,0,3,1.4,3,3
	C73.2,28.1,71.8,29.4,70.1,29.4z M53.4,40.1c-2.5,0-4.6,2-4.6,4.6c0,2.5,2,4.6,4.6,4.6c2.5,0,4.6-2,4.6-4.6
	C58,42.1,55.9,40.1,53.4,40.1z M53.4,46.2c-0.8,0-1.5-0.7-1.5-1.5c0-0.8,0.7-1.5,1.5-1.5c0.8,0,1.5,0.7,1.5,1.5
	C54.9,45.5,54.3,46.2,53.4,46.2z M68.6,18.8c0.8,0,1.5-0.7,1.5-1.5c0-0.8-0.7-1.5-1.5-1.5c-0.8,0-1.5,0.7-1.5,1.5
	C67.1,18.1,67.8,18.8,68.6,18.8z M45.8,44.6c-0.8,0-1.5,0.7-1.5,1.5c0,0.8,0.7,1.5,1.5,1.5c0.8,0,1.5-0.7,1.5-1.5
	C47.3,45.3,46.7,44.6,45.8,44.6z M100.5,43.1c-2.5,0-4.6,2-4.6,4.6s2,4.6,4.6,4.6c2.5,0,4.6-2,4.6-4.6S103,43.1,100.5,43.1z
	 M100.5,49.2c-0.8,0-1.5-0.7-1.5-1.5c0-0.8,0.7-1.5,1.5-1.5c0.8,0,1.5,0.7,1.5,1.5C102,48.5,101.3,49.2,100.5,49.2z M89.9,31
	c-0.8,0-1.5,0.7-1.5,1.5c0,0.8,0.7,1.5,1.5,1.5c0.8,0,1.5-0.7,1.5-1.5C91.4,31.6,90.7,31,89.9,31z M58,18.8c-2.5,0-4.6,2-4.6,4.6
	s2,4.6,4.6,4.6c2.5,0,4.6-2,4.6-4.6S60.5,18.8,58,18.8z M58,24.9c-0.8,0-1.5-0.7-1.5-1.5s0.7-1.5,1.5-1.5c0.8,0,1.5,0.7,1.5,1.5
	S58.8,24.9,58,24.9z M89.9,17.3c-3.4,0-6.1,2.7-6.1,6.1c0,3.4,2.7,6.1,6.1,6.1c3.4,0,6.1-2.7,6.1-6.1C95.9,20,93.2,17.3,89.9,17.3z
	 M89.9,26.4c-1.7,0-3-1.4-3-3c0-1.7,1.4-3,3-3c1.7,0,3,1.4,3,3C92.9,25,91.5,26.4,89.9,26.4z M145.5,55h-34.8c0,0,0-0.1,0-0.1h-1.1
	c1-3.3,1.5-6.7,1.5-10.3c0-20.1-16.3-36.5-36.5-36.5c-20.1,0-36.5,16.3-36.5,36.5c0,3.6,0.5,7,1.5,10.3h-0.4c0,0,0,0.1,0,0.1H4.5
	c-1.7,0-3.1,1.4-3.1,3.1c0,1.7,1.4,3.1,3.1,3.1h141c1.7,0,3.1-1.4,3.1-3.1C148.5,56.4,147.2,55,145.5,55z M106.5,54.9h-2.1
	c0,0,0,0.1,0,0.1h-3.7c-0.8-0.8-1.9-1.3-3.2-1.3s-2.3,0.5-3.2,1.3H62.5c-0.1-0.7-0.7-1.3-1.5-1.3c-0.8,0-1.4,0.6-1.5,1.3H45.7
	c0,0,0-0.1,0-0.1h-2.8c-1.1-3.3-1.6-6.8-1.6-10.3c0-4.5,0.9-8.9,2.6-13c1.7-4,4.1-7.6,7.2-10.6c3.1-3.1,6.6-5.5,10.6-7.2
	c4.1-1.7,8.5-2.6,13-2.6s8.9,0.9,13,2.6c4,1.7,7.6,4.1,10.6,7.2c3.1,3.1,5.5,6.6,7.2,10.6c1.7,4.1,2.6,8.5,2.6,13
	C108.1,48.2,107.5,51.6,106.5,54.9z"/>
</svg>
